<svg width="236" height="51" viewBox="0 0 236 51" fill="none" xmlns="http://www.w3.org/2000/svg">
<path d="M0 30C0 13.4315 13.4315 0 30 0H228C232.418 0 236 3.58172 236 8V21C236 37.5685 222.569 51 206 51H8C3.58172 51 0 47.4183 0 43V30Z" fill="#D9CDF7"/>
<g filter="url(#filter0_d_424_12)">
<path d="M50.375 36L50.2812 34.5625L52.125 34.0938C52.1667 34.0104 52.1979 33.7812 52.2188 33.4062C52.2396 33.0312 52.2604 32.5208 52.2812 31.875C52.3021 31.2083 52.3125 30.4167 52.3125 29.5L52.3438 24.0312C52.3438 23.1562 52.3333 22.3958 52.3125 21.75C52.2917 21.1042 52.2708 20.5938 52.25 20.2188C52.2292 19.8229 52.1979 19.5938 52.1562 19.5312L50.1875 19.0938L50.2812 17.6562H57.7812C60.1771 17.6562 61.9896 18.1146 63.2188 19.0312C64.4479 19.9479 65.0625 21.2708 65.0625 23C65.0625 24.1458 64.7604 25.1667 64.1562 26.0625C63.5521 26.9583 62.6979 27.6667 61.5938 28.1875C60.5104 28.6875 59.2292 28.9375 57.75 28.9375C57.3542 28.9375 56.9688 28.9167 56.5938 28.875C56.2396 28.8333 55.8958 28.7812 55.5625 28.7188V26.6875C55.875 26.8125 56.2083 26.9167 56.5625 27C56.9167 27.0625 57.3021 27.0938 57.7188 27.0938C58.8021 27.0938 59.6354 26.7812 60.2188 26.1562C60.8229 25.5312 61.125 24.6146 61.125 23.4062C61.125 21.9896 60.7604 20.9479 60.0312 20.2812C59.3229 19.6146 58.375 19.2812 57.1875 19.2812H56.0625C56.0625 19.4271 56.0521 19.7083 56.0312 20.125C56.0312 20.5417 56.0208 21.0833 56 21.75C56 22.3958 56 23.1562 56 24.0312L56.0312 29.5C56.0312 30.4167 56.0417 31.2083 56.0625 31.875C56.0833 32.5208 56.1042 33.0312 56.125 33.4062C56.1667 33.7604 56.1979 33.9792 56.2188 34.0625L58.75 34.5L58.6562 36H50.375ZM66.7812 36L66.6875 34.6562L68.625 34.1562C68.6458 34.0729 68.6667 33.8958 68.6875 33.625C68.7083 33.3542 68.7292 33 68.75 32.5625C68.7708 32.1042 68.7812 31.5729 68.7812 30.9688L68.8125 28.5938C68.8125 27.9479 68.7917 27.3542 68.75 26.8125C68.7083 26.25 68.6354 25.7292 68.5312 25.25L66.5312 24.8125V23.5312L71.5625 22.1875L72.25 22.6875L72.125 25.1875L72.2188 25.2188C72.8229 24.0521 73.4375 23.2604 74.0625 22.8438C74.6875 22.4271 75.3125 22.2188 75.9375 22.2188C76.4792 22.2188 76.9375 22.3646 77.3125 22.6562C77.7083 22.9479 77.9062 23.3958 77.9062 24C77.9062 24.6042 77.6979 25.0729 77.2812 25.4062C76.8646 25.7396 76.3646 25.9062 75.7812 25.9062C75.3229 25.9062 74.9062 25.8229 74.5312 25.6562C74.1562 25.4896 73.7604 25.2083 73.3438 24.8125L74.0938 24.9062C73.7604 25.1562 73.4375 25.4792 73.125 25.875C72.8125 26.25 72.5312 26.6979 72.2812 27.2188L72.3125 29.8125C72.3333 30.5 72.3542 31.1458 72.375 31.75C72.3958 32.3333 72.4167 32.8438 72.4375 33.2812C72.4583 33.6979 72.4792 33.9896 72.5 34.1562L75.2188 34.5938L75.125 36H66.7812ZM85.8438 36.25C84.4271 36.25 83.1771 35.9583 82.0938 35.375C81.0312 34.7708 80.1979 33.9479 79.5938 32.9062C78.9896 31.8438 78.6875 30.6354 78.6875 29.2812C78.6875 27.8021 79.0208 26.5312 79.6875 25.4688C80.375 24.3854 81.2708 23.5625 82.375 23C83.5 22.4167 84.6979 22.125 85.9688 22.125C87.3229 22.125 88.5104 22.4167 89.5312 23C90.5521 23.5833 91.3438 24.3958 91.9062 25.4375C92.4896 26.4792 92.7812 27.6771 92.7812 29.0312C92.7812 30.3854 92.4688 31.6146 91.8438 32.7188C91.2396 33.8021 90.4062 34.6667 89.3438 35.3125C88.3021 35.9375 87.1354 36.25 85.8438 36.25ZM86.1562 34.4375C86.7396 34.4375 87.2396 34.2604 87.6562 33.9062C88.0729 33.5312 88.3958 33 88.625 32.3125C88.8542 31.625 88.9688 30.8229 88.9688 29.9062C88.9688 28.1146 88.6562 26.6562 88.0312 25.5312C87.4062 24.4062 86.5729 23.8438 85.5312 23.8438C84.6354 23.8438 83.9167 24.2708 83.375 25.125C82.8333 25.9792 82.5625 27.1146 82.5625 28.5312C82.5625 29.6562 82.7188 30.6667 83.0312 31.5625C83.3438 32.4583 83.7708 33.1667 84.3125 33.6875C84.8542 34.1875 85.4688 34.4375 86.1562 34.4375ZM105.844 36.375L105.125 35.9375L105.156 33.9375L105.062 33.9062C104.5 34.7812 103.885 35.3958 103.219 35.75C102.573 36.1042 101.906 36.2812 101.219 36.2812C100.094 36.2812 99.0625 36 98.125 35.4375C97.1875 34.875 96.4375 34.1042 95.875 33.125C95.3333 32.125 95.0625 30.9688 95.0625 29.6562C95.0625 28.4896 95.2708 27.4479 95.6875 26.5312C96.1042 25.5938 96.6667 24.8021 97.375 24.1562C98.1042 23.5104 98.9062 23.0208 99.7812 22.6875C100.656 22.3333 101.542 22.1562 102.438 22.1562C102.896 22.1562 103.365 22.2083 103.844 22.3125C104.323 22.3958 104.719 22.5312 105.031 22.7188C105.031 22.3438 105.021 21.8958 105 21.375C105 20.8333 104.99 20.2917 104.969 19.75C104.969 19.2083 104.958 18.7188 104.938 18.2812C104.938 17.8438 104.927 17.5208 104.906 17.3125L102.531 16.9375L102.469 15.6875L107.969 14.25L108.719 14.75C108.656 16.0417 108.604 17.2604 108.562 18.4062C108.521 19.5312 108.5 20.7188 108.5 21.9688L108.469 29.1875C108.469 30.25 108.5 31.125 108.562 31.8125C108.625 32.5 108.677 33.0208 108.719 33.375L110.75 33.8438V35.0938L105.844 36.375ZM102.469 33.5938C102.885 33.5938 103.323 33.4792 103.781 33.25C104.24 33.0208 104.667 32.6354 105.062 32.0938V25.25C104.729 24.75 104.333 24.3958 103.875 24.1875C103.417 23.9792 102.958 23.875 102.5 23.875C101.417 23.875 100.531 24.3021 99.8438 25.1562C99.1771 26.0104 98.8438 27.1771 98.8438 28.6562C98.8438 30.2396 99.1979 31.4583 99.9062 32.3125C100.615 33.1667 101.469 33.5938 102.469 33.5938ZM126.406 33.375L128.438 33.8438V35.0938L123.531 36.375L122.812 35.9375L122.844 33.8438L122.75 33.8125C122.146 34.7292 121.5 35.375 120.812 35.75C120.146 36.1042 119.448 36.2812 118.719 36.2812C117.26 36.2812 116.062 35.8229 115.125 34.9062C114.188 33.9896 113.719 32.6146 113.719 30.7812V28.125C113.719 27.7083 113.698 27.2604 113.656 26.7812C113.635 26.2812 113.604 25.7708 113.562 25.25L111.438 24.8125V23.5312L116.656 22.1875L117.406 22.7188C117.365 23.3438 117.323 24.0729 117.281 24.9062C117.26 25.7396 117.25 26.5938 117.25 27.4688L117.219 30.375C117.219 31.5208 117.479 32.3542 118 32.875C118.521 33.375 119.208 33.625 120.062 33.625C120.521 33.625 120.99 33.5 121.469 33.25C121.969 33 122.396 32.5833 122.75 32V28.6562C122.75 28.2188 122.74 27.8021 122.719 27.4062C122.719 27.0104 122.698 26.6354 122.656 26.2812C122.635 25.9062 122.604 25.5625 122.562 25.25L120.281 24.8125V23.5312L125.594 22.1875L126.312 22.6875C126.292 23.1458 126.271 23.6042 126.25 24.0625C126.25 24.5208 126.24 25.0104 126.219 25.5312C126.219 26.0521 126.219 26.6354 126.219 27.2812V29.6875C126.219 30.3958 126.229 31.0833 126.25 31.75C126.292 32.3958 126.344 32.9375 126.406 33.375ZM136.875 36.25C135.604 36.25 134.448 35.9688 133.406 35.4062C132.385 34.8438 131.562 34.0521 130.938 33.0312C130.333 32.0104 130.031 30.8333 130.031 29.5C130.031 28.1667 130.354 26.9479 131 25.8438C131.646 24.7188 132.531 23.8229 133.656 23.1562C134.802 22.4688 136.104 22.125 137.562 22.125C138.479 22.125 139.281 22.25 139.969 22.5C140.677 22.7292 141.229 23.0521 141.625 23.4688C142.021 23.8854 142.219 24.3438 142.219 24.8438C142.219 25.3021 142.073 25.6562 141.781 25.9062C141.51 26.1562 141.156 26.2812 140.719 26.2812C140.344 26.2812 140.01 26.2083 139.719 26.0625C139.448 25.9167 139.125 25.6771 138.75 25.3438L136.688 23.4688L138.125 23.8125C137.438 23.6667 136.76 23.7604 136.094 24.0938C135.448 24.4062 134.917 24.9375 134.5 25.6875C134.083 26.4375 133.875 27.3958 133.875 28.5625C133.875 30.1875 134.271 31.4271 135.062 32.2812C135.875 33.1146 136.875 33.5312 138.062 33.5312C138.729 33.5312 139.344 33.3958 139.906 33.125C140.49 32.8542 141.052 32.3958 141.594 31.75L142.531 32.5938C141.948 33.8021 141.156 34.7188 140.156 35.3438C139.156 35.9479 138.062 36.25 136.875 36.25ZM154.281 33.5938C153.948 34.4271 153.385 35.0833 152.594 35.5625C151.823 36.0417 150.979 36.2812 150.062 36.2812C148.667 36.2812 147.521 35.875 146.625 35.0625C145.75 34.25 145.312 33.0208 145.312 31.375L145.406 24.25H143.219V23.3438L148.062 19.3438H148.969L148.906 23.4688L148.844 30.9688C148.844 31.9062 149.062 32.5938 149.5 33.0312C149.938 33.4479 150.552 33.6562 151.344 33.6562C151.76 33.6562 152.156 33.5729 152.531 33.4062C152.927 33.2396 153.271 33.0208 153.562 32.75L154.281 33.5938ZM147.281 24.25V22.4062H153.406V24.25H147.281ZM171.812 36.2812C169.854 36.2812 168.115 35.9271 166.594 35.2188C165.073 34.5104 163.875 33.4688 163 32.0938C162.125 30.7188 161.688 29.0417 161.688 27.0625C161.688 25.625 161.938 24.3125 162.438 23.125C162.958 21.9375 163.688 20.9167 164.625 20.0625C165.583 19.2083 166.719 18.5521 168.031 18.0938C169.344 17.6146 170.802 17.375 172.406 17.375C173.323 17.375 174.26 17.4688 175.219 17.6562C176.177 17.8438 177 18.0938 177.688 18.4062L177.906 23.0312L176.156 23.1562L175.125 19.9688C174.729 19.7396 174.26 19.5729 173.719 19.4688C173.198 19.3438 172.667 19.2812 172.125 19.2812C170.792 19.2812 169.677 19.5833 168.781 20.1875C167.906 20.7917 167.24 21.625 166.781 22.6875C166.344 23.75 166.125 24.9792 166.125 26.375C166.125 28.0417 166.406 29.4688 166.969 30.6562C167.531 31.8438 168.281 32.75 169.219 33.375C170.177 34 171.24 34.3125 172.406 34.3125C172.969 34.3125 173.542 34.2292 174.125 34.0625C174.708 33.8958 175.198 33.6562 175.594 33.3438L176.781 30.5L178.656 30.6875L177.75 34.75C177.104 35.1458 176.24 35.5 175.156 35.8125C174.094 36.125 172.979 36.2812 171.812 36.2812ZM185.125 36.25C184.188 36.25 183.375 36.0521 182.688 35.6562C182.021 35.2604 181.51 34.7812 181.156 34.2188C180.802 33.6562 180.625 33.1146 180.625 32.5938C180.625 31.8646 180.854 31.2604 181.312 30.7812C181.771 30.2812 182.5 29.875 183.5 29.5625L188.375 28.0625V26.7812C188.375 26.3229 188.229 25.8958 187.938 25.5C187.646 25.1042 187.26 24.7812 186.781 24.5312C186.302 24.2812 185.781 24.1562 185.219 24.1562C184.823 24.1562 184.542 24.25 184.375 24.4375C184.229 24.6042 184.135 24.9479 184.094 25.4688L183.969 27.1562C183.031 27.3646 182.25 27.3438 181.625 27.0938C181.021 26.8229 180.719 26.3854 180.719 25.7812C180.719 25.4062 180.906 25.0208 181.281 24.625C181.656 24.2292 182.125 23.8542 182.688 23.5C183.271 23.1458 183.875 22.8438 184.5 22.5938C185.125 22.3438 185.698 22.1875 186.219 22.125C187.969 22.125 189.354 22.5417 190.375 23.375C191.417 24.2083 191.948 25.3229 191.969 26.7188L191.875 31.3438C191.875 31.8646 191.885 32.3021 191.906 32.6562C191.948 32.9896 192.01 33.2604 192.094 33.4688L194.125 33.8438V35.0312L192.281 35.8125C191.927 35.9583 191.604 36.0625 191.312 36.125C191.021 36.2083 190.75 36.25 190.5 36.25C189.75 36.25 189.229 35.8542 188.938 35.0625L188.469 33.6875L189.062 33.8125C188.417 34.5833 187.76 35.1875 187.094 35.625C186.427 36.0417 185.771 36.25 185.125 36.25ZM186.469 33.75C186.823 33.75 187.156 33.6771 187.469 33.5312C187.802 33.3854 188.104 33.1562 188.375 32.8438V29.7188L185.781 30.2812C185.281 30.3854 184.917 30.5625 184.688 30.8125C184.479 31.0625 184.375 31.3958 184.375 31.8125C184.375 32.3125 184.573 32.7604 184.969 33.1562C185.385 33.5521 185.885 33.75 186.469 33.75ZM195.188 36L195.094 34.6562L197.031 34.1562C197.052 34.0729 197.073 33.8958 197.094 33.625C197.115 33.3542 197.135 33 197.156 32.5625C197.177 32.1042 197.188 31.5729 197.188 30.9688L197.219 28.5938C197.219 27.9479 197.198 27.3542 197.156 26.8125C197.115 26.25 197.042 25.7292 196.938 25.25L194.938 24.8125V23.5312L199.969 22.1875L200.656 22.6875L200.531 25.1875L200.625 25.2188C201.229 24.0521 201.844 23.2604 202.469 22.8438C203.094 22.4271 203.719 22.2188 204.344 22.2188C204.885 22.2188 205.344 22.3646 205.719 22.6562C206.115 22.9479 206.312 23.3958 206.312 24C206.312 24.6042 206.104 25.0729 205.688 25.4062C205.271 25.7396 204.771 25.9062 204.188 25.9062C203.729 25.9062 203.312 25.8229 202.938 25.6562C202.562 25.4896 202.167 25.2083 201.75 24.8125L202.5 24.9062C202.167 25.1562 201.844 25.4792 201.531 25.875C201.219 26.25 200.938 26.6979 200.688 27.2188L200.719 29.8125C200.74 30.5 200.76 31.1458 200.781 31.75C200.802 32.3333 200.823 32.8438 200.844 33.2812C200.865 33.6979 200.885 33.9896 200.906 34.1562L203.625 34.5938L203.531 36H195.188ZM217.875 36.375L217.156 35.9375L217.188 33.9375L217.094 33.9062C216.531 34.7812 215.917 35.3958 215.25 35.75C214.604 36.1042 213.938 36.2812 213.25 36.2812C212.125 36.2812 211.094 36 210.156 35.4375C209.219 34.875 208.469 34.1042 207.906 33.125C207.365 32.125 207.094 30.9688 207.094 29.6562C207.094 28.4896 207.302 27.4479 207.719 26.5312C208.135 25.5938 208.698 24.8021 209.406 24.1562C210.135 23.5104 210.938 23.0208 211.812 22.6875C212.688 22.3333 213.573 22.1562 214.469 22.1562C214.927 22.1562 215.396 22.2083 215.875 22.3125C216.354 22.3958 216.75 22.5312 217.062 22.7188C217.062 22.3438 217.052 21.8958 217.031 21.375C217.031 20.8333 217.021 20.2917 217 19.75C217 19.2083 216.99 18.7188 216.969 18.2812C216.969 17.8438 216.958 17.5208 216.938 17.3125L214.562 16.9375L214.5 15.6875L220 14.25L220.75 14.75C220.688 16.0417 220.635 17.2604 220.594 18.4062C220.552 19.5312 220.531 20.7188 220.531 21.9688L220.5 29.1875C220.5 30.25 220.531 31.125 220.594 31.8125C220.656 32.5 220.708 33.0208 220.75 33.375L222.781 33.8438V35.0938L217.875 36.375ZM214.5 33.5938C214.917 33.5938 215.354 33.4792 215.812 33.25C216.271 33.0208 216.698 32.6354 217.094 32.0938V25.25C216.76 24.75 216.365 24.3958 215.906 24.1875C215.448 23.9792 214.99 23.875 214.531 23.875C213.448 23.875 212.562 24.3021 211.875 25.1562C211.208 26.0104 210.875 27.1771 210.875 28.6562C210.875 30.2396 211.229 31.4583 211.938 32.3125C212.646 33.1667 213.5 33.5938 214.5 33.5938Z" fill="#271A45"/>
</g>
<path d="M37 30.875V36C37 36.5304 36.7893 37.0391 36.4142 37.4142C36.0391 37.7893 35.5304 38 35 38H17C16.4696 38 15.9609 37.7893 15.5858 37.4142C15.2107 37.0391 15 36.5304 15 36V30.875C14.2757 30.688 13.6184 30.3016 13.1026 29.7598C12.5869 29.2179 12.2334 28.5423 12.0824 27.8097C11.9313 27.077 11.9888 26.3167 12.2481 25.6151C12.5075 24.9134 12.9584 24.2986 13.5497 23.8404C14.141 23.3821 14.8489 23.0989 15.5931 23.0228C16.3372 22.9467 17.0878 23.0808 17.7596 23.4098C18.4314 23.7389 18.9974 24.2498 19.3935 24.8844C19.7895 25.519 19.9996 26.252 20 27V32C20 32.2652 20.1054 32.5196 20.2929 32.7071C20.4804 32.8946 20.7348 33 21 33C21.2652 33 21.5196 32.8946 21.7071 32.7071C21.8946 32.5196 22 32.2652 22 32V28H30V32C30 32.2652 30.1054 32.5196 30.2929 32.7071C30.4804 32.8946 30.7348 33 31 33C31.2652 33 31.5196 32.8946 31.7071 32.7071C31.8946 32.5196 32 32.2652 32 32V27C32.0004 26.252 32.2105 25.519 32.6065 24.8844C33.0026 24.2498 33.5686 23.7389 34.2404 23.4098C34.9122 23.0808 35.6628 22.9467 36.4069 23.0228C37.1511 23.0989 37.859 23.3821 38.4503 23.8404C39.0416 24.2986 39.4925 24.9134 39.7519 25.6151C40.0112 26.3167 40.0687 27.077 39.9176 27.8097C39.7666 28.5423 39.4131 29.2179 38.8974 29.7598C38.3816 30.3016 37.7243 30.688 37 30.875ZM21.9125 26H30.0875C30.3237 24.6025 31.047 23.3338 32.1292 22.4186C33.2114 21.5034 34.5827 21.0008 36 21H36.4625C36.5306 21.007 36.5994 20.9996 36.6644 20.9783C36.7295 20.957 36.7893 20.9222 36.84 20.8762C36.8907 20.8302 36.9312 20.774 36.9587 20.7114C36.9863 20.6487 37.0004 20.581 37 20.5125V20C37 18.6739 36.4732 17.4021 35.5355 16.4645C34.5979 15.5268 33.3261 15 32 15H20C18.6739 15 17.4021 15.5268 16.4645 16.4645C15.5268 17.4021 15 18.6739 15 20V20.525C14.9996 20.5935 15.0137 20.6612 15.0413 20.7239C15.0688 20.7865 15.1093 20.8427 15.16 20.8887C15.2107 20.9347 15.2705 20.9695 15.3356 20.9908C15.4006 21.0121 15.4694 21.0195 15.5375 21.0125H16C17.4155 21.0128 18.7853 21.5136 19.8672 22.4263C20.9492 23.339 21.6736 24.6048 21.9125 26Z" fill="#271A45"/>
<defs>
<filter id="filter0_d_424_12" x="46.1875" y="14.25" width="180.594" height="30.125" filterUnits="userSpaceOnUse" color-interpolation-filters="sRGB">
<feFlood flood-opacity="0" result="BackgroundImageFix"/>
<feColorMatrix in="SourceAlpha" type="matrix" values="0 0 0 0 0 0 0 0 0 0 0 0 0 0 0 0 0 0 127 0" result="hardAlpha"/>
<feOffset dy="4"/>
<feGaussianBlur stdDeviation="2"/>
<feComposite in2="hardAlpha" operator="out"/>
<feColorMatrix type="matrix" values="0 0 0 0 0 0 0 0 0 0 0 0 0 0 0 0 0 0 0.25 0"/>
<feBlend mode="normal" in2="BackgroundImageFix" result="effect1_dropShadow_424_12"/>
<feBlend mode="normal" in="SourceGraphic" in2="effect1_dropShadow_424_12" result="shape"/>
</filter>
</defs>
</svg>
